<?xml version="1.0" encoding="utf-8" ?>
<svg xmlns="http://www.w3.org/2000/svg" xmlns:xlink="http://www.w3.org/1999/xlink" width="818" height="743">
	<path d="M415.57 12.1836C416.315 11.9911 417.024 11.9794 417.792 11.9826C419.268 11.9887 421.027 12.503 422.017 13.6613C423.402 15.2828 423.915 17.7057 424.072 19.7719C424.789 29.2096 424.317 38.6367 424.241 48.0829L424.181 87.4372L424.204 114.046C424.249 118.768 424.836 123.879 424.295 128.545L424.209 129.226L423.817 131.823C423.194 134.072 421.196 135.452 419.299 136.551C417.827 136.691 416.412 136.651 414.986 136.201C413.606 135.765 412.299 134.33 411.674 133.067C411.025 131.755 410.634 130.333 410.574 128.872L410.538 107.745L410.549 65.6183C410.522 52.1974 409.329 38.7941 409.806 25.3659C409.904 22.6061 410.418 19.6724 411.305 17.0543C412.132 14.6134 413.274 13.311 415.57 12.1836Z"/>
	<path d="M634.023 109.492C635.161 109.377 636.536 109.307 637.665 109.491C638.929 109.698 639.974 110.758 640.666 111.789C642.362 114.315 642.299 118.056 641.616 120.921C641.046 123.315 639.87 125.395 638.444 127.378C635.85 130.986 632.647 134.304 629.752 137.682L616.374 153.863C604.286 168.946 592.99 185.004 579.607 198.982C578.246 200.405 576.543 201.387 574.875 202.405C573.513 202.492 572.31 202.423 570.962 202.213C569.829 201.598 569.162 200.907 568.516 199.793C566.829 196.88 566.635 193.747 567.591 190.544C568.219 188.44 569.436 186.56 570.703 184.793C578.614 173.761 587.861 163.496 596.318 152.858C605.944 140.749 615.099 127.855 625.593 116.486C628.168 113.696 630.674 111.335 634.023 109.492Z"/>
	<path d="M199.885 108.454C200.891 108.491 201.519 108.72 202.384 109.192L202.902 109.484C204.524 110.38 205.665 111.246 206.889 112.658L227.874 139.289L242.55 157.528L256.176 173.966C260.859 179.475 267.035 184.983 270.013 191.654C271.171 194.247 271.97 198.192 270.78 200.917C269.649 203.504 267.129 205.376 264.612 206.478C263.659 206.397 262.708 205.978 261.915 205.453C260.454 204.486 259.265 202.853 258.146 201.511L251.433 193.225L227.305 163.31L205.921 137.357C202.874 133.697 199.48 130.348 196.648 126.507C194.964 124.223 193.763 121.865 193.339 119.024L193.259 118.441C193 116.678 193.398 113.924 194.315 112.382L194.528 112.049C195.813 110.002 197.576 109.024 199.885 108.454Z"/>
	<path d="M399.646 239.852L401.379 239.808C424.223 239.328 447.994 242.66 470.294 247.354C545.051 263.088 614.582 300.819 674.479 347.538L720.9 387.567L743.678 408.315L784.075 450.067L798.292 465.228C801.255 468.463 804.351 471.651 806.841 475.276C808.705 477.988 810.09 480.588 810.143 483.949C810.179 486.257 809.908 487.631 808.745 489.608C806.461 493.494 803.352 497.025 800.528 500.53L776.752 527.49L719.576 589.407C706.997 602.313 692.642 614.038 678.683 625.432C654.709 644.999 629.61 663.122 602.863 678.761C578.051 693.268 551.746 705.127 524.659 714.674C515.892 717.764 507.109 721.204 498.113 723.565C481.756 727.858 465.152 730.692 448.374 732.693C438.422 733.88 428.117 735.318 418.093 735.466C393.841 736.538 370.692 733.931 346.891 729.472C280.375 717.011 218.413 689.113 163.956 649.051C153.986 641.716 144.81 633.556 135.401 625.537L118.395 611.022L93.7738 587.669L79.1493 573.568L37.9847 528.089C30.8219 520.31 8.47375 498.908 7.34658 488.752C6.77553 483.607 11.397 477.567 14.5339 473.882L34.7803 451.602L58.8494 425.243L81.7815 400.604C97.7848 384.26 114.389 368.167 131.977 353.532C161.472 328.988 193.5 308.016 227.234 289.81C255.306 274.66 284.241 261.643 315.096 253.248C342.766 245.721 371.131 242.166 399.646 239.852ZM397.882 259.024C374.143 260.39 350.632 263.823 327.567 269.683C265.62 285.424 208.086 316.832 157.733 355.752C130.771 376.592 105.582 400.036 81.6519 424.263L47.2969 460.101C41.0049 467.147 35.0192 474.875 29.3607 482.448C28.2306 483.96 26.109 486.13 25.5714 487.888L80.1765 551.141C107.085 579.76 136.519 607.316 168.136 630.67C213.111 663.891 263.696 689.22 317.738 703.659C335.245 708.336 353.617 713.643 371.689 715.575C379.776 716.44 387.78 716.424 395.908 716.441L420.97 716.279C437.514 715.193 454.016 713.727 470.326 710.626C523.111 700.587 574.022 677.323 618.707 647.8C639.263 634.219 658.663 619.132 677.564 603.35C698.35 585.995 717.838 567.444 736.776 548.102L759.989 523.721L792.639 484.788C787.44 477.127 780.89 470.185 774.692 463.327L730.451 418.461L713.112 402.26L672.944 368.696C664.544 361.795 656.332 354.428 647.573 347.989C608.109 318.977 565.218 294.919 518.882 278.866C502.674 273.251 486.579 268.514 469.711 265.269C451.544 261.773 433.166 259.246 414.648 258.81C409.118 258.679 403.381 258.412 397.882 259.024Z"/>
	<path d="M407.292 286.584L407.303 286.573C444.237 284.561 477.844 300.545 505.135 324.596C511.545 330.244 517.238 336.482 522.753 342.989C555.603 381.747 570.703 430.456 573.823 480.575C574.286 488.01 573.954 495.5 573.499 502.923C570.421 553.101 553.391 601.441 519.637 639.241C493.46 668.555 455.07 687.522 415.826 689.804C408.908 690.363 401.825 689.806 394.951 689C366.276 685.638 341.786 673.204 319.593 655.109C312.262 649.131 306.136 642.71 299.929 635.587C270.707 602.05 254.217 558.494 249.875 514.491C245.398 469.109 252.807 421.048 273.947 380.411C280.689 367.451 289.037 355.332 298.317 344.067C318.288 319.824 344.647 299.428 375.421 291.429C385.872 288.712 396.574 287.625 407.292 286.584ZM410.667 305.371C371.651 307.676 336.307 326.032 310.421 355.095C281.577 387.48 265.148 430.562 262.167 473.61C261.525 482.881 261.9 492.721 262.502 501.991C263.669 519.973 267.489 537.719 273.003 554.846C275.828 563.621 278.726 572.343 282.585 580.728C291.853 600.864 306.074 620.94 322.755 635.645C346.821 656.86 380.016 670.998 412.373 670.851C447.376 669.963 482.372 654.968 506.617 629.497C543.374 590.882 562.12 534.904 560.326 481.951C558.589 430.721 537.952 377.722 499.973 342.56C481.566 325.518 458.013 312.947 433.478 307.688C426.295 306.149 418.953 305.01 411.591 305.318C411.394 305.326 410.882 305.32 410.667 305.371Z"/>
	<path d="M396.433 331.65L400.199 331.58C401.302 331.69 403.172 332.278 403.881 333.143C405.587 335.225 405.714 338.733 405.487 341.357C405.155 345.211 403.556 347.583 400.156 349.437C395.476 351.988 388.704 351.97 383.51 353.349C364.03 358.52 348.241 370.646 334.927 385.402C318.998 403.055 307.468 426.671 303.225 450.058L301.408 463.177C301.017 466.925 300.864 470.704 299.884 474.367C299.14 477.146 297.692 479.318 295.53 481.179C293.339 481.894 292.187 482.2 290.021 480.967C288.306 479.99 287.515 478.578 287.11 476.694C285.516 469.279 287.31 460.149 288.647 452.771C293.204 427.608 300.546 404.9 315.118 383.649C330.971 360.532 353.493 342.893 380.56 335.007C385.73 333.501 391.138 332.62 396.433 331.65Z"/>
	<path d="M414.034 419.595C420.2 418.978 427.63 421.212 433.182 423.817C450.855 432.11 459.845 447.918 466.267 465.482C468.858 472.565 470.22 480.906 470.474 488.424C471.167 508.901 465.754 530.415 451.538 545.68C441.861 556.071 427.745 563.345 413.437 563.78C401.884 563.446 391.364 559.869 382.22 552.821C366.899 541.011 358.809 521.681 356.398 502.898C353.723 482.054 357.293 459.079 370.534 442.161C381.202 428.531 397.213 421.738 414.034 419.595ZM409.948 438.294C397.205 440.839 386.015 446.89 378.631 457.851C369.565 471.309 367.099 490.309 370.175 506.039L371.176 509.876C371.583 511.855 372.478 513.803 373.223 515.677C377.682 526.897 387.565 538.366 398.738 543.289C403.766 545.504 410.46 546.831 415.936 546.073C428.793 543.398 441.095 535.569 448.316 524.487C456.926 511.274 458.721 493.289 455.341 478.142C452.553 465.649 444.249 451.016 433.202 444.163C426.46 439.981 417.913 437.322 409.948 438.294Z"/>
</svg>
